<svg width="66" height="62" viewBox="0 0 66 62" fill="none" xmlns="http://www.w3.org/2000/svg">
<path fill-rule="evenodd" clip-rule="evenodd" d="M19.8524 0.124212C19.8524 0.215824 26.0649 19.9883 27.92 25.8006C27.9874 26.0119 27.502 26.0236 18.9264 26.0188L9.86175 26.0138L7.41449 22.7651L4.9671 19.5166H2.48361C1.11754 19.5166 0 19.5592 0 19.6113C0 19.6633 0.733379 22.2471 1.6297 25.353L3.25928 31L1.6297 36.647C0.733379 39.7529 0 42.3367 0 42.3887C0 42.4408 1.11754 42.4834 2.48361 42.4834H4.9671L7.41449 39.2349L9.86175 35.9862L18.9264 35.9812C27.502 35.9764 27.9874 35.9881 27.92 36.1994C26.0649 42.0117 19.8524 61.7842 19.8524 61.8758C19.8524 61.96 21.0103 62.0033 23.1719 61.9998L26.4914 61.9943L34.6773 48.9947L42.8632 35.9953L52.4026 35.9538L61.9421 35.9123L62.6836 35.6159C64.6609 34.8258 66 32.9619 66 31C66 29.0381 64.6609 27.1742 62.6836 26.3841L61.9421 26.0877L52.4026 26.0462L42.8632 26.0047L34.6773 13.0053L26.4914 0.00567743L23.1719 0.000190895C21.0103 -0.00325412 19.8524 0.04 19.8524 0.124212Z" fill="#E07A50"/>
</svg>
