<svg width="174" height="42" viewBox="0 0 174 42" fill="none" xmlns="http://www.w3.org/2000/svg">
<path d="M20.0472 33.202C20.0472 38.3847 15.8297 42 10.0844 42C5.56167 42 2.20019 39.409 0 37.119L3.23908 33.9254C5.43927 35.8541 8.12829 36.9388 10.0232 36.9991C12.8347 36.9991 14.7908 35.3721 14.9124 33.2631C15.2177 30.5515 13.3847 28.9848 9.28958 27.7192C4.40036 26.2732 0.976926 24.1031 0.976926 19.1618C0.976926 14.2205 5.31609 10.7855 10.2061 10.7855C13.6899 10.7855 15.8901 11.8098 18.7016 13.9188L15.3401 17.2331C13.69 16.1485 12.0398 15.7268 10.5725 15.6665C8.43353 15.6665 6.35498 16.7511 6.17214 18.6798C5.92734 20.6085 6.90579 22.1148 10.5113 23.1995C17.2955 25.1878 20.0457 28.0201 20.0457 33.2028L20.0472 33.202ZM62.2233 41.3981H67.2349V0H62.2233V41.3973V41.3981ZM113.521 0H118.532V41.3973H113.521V37.6908C110.681 40.2961 106.868 41.8793 102.703 41.8793C93.9623 41.8793 86.8729 35.0093 86.8729 26.332C86.8729 17.6548 93.9631 10.7847 102.703 10.7847C106.868 10.7847 110.681 12.3816 113.521 14.9952V0ZM113.398 26.332C113.398 20.426 108.631 15.7261 102.703 15.7261C96.7745 15.7261 92.0069 20.4267 92.0069 26.332C92.0069 32.2373 96.7133 36.938 102.703 36.938C108.692 36.938 113.398 32.2373 113.398 26.332ZM78.2374 2.48536C76.526 2.48536 75.1811 3.87174 75.1811 5.49872C75.1811 7.12571 76.526 8.57243 78.2374 8.57243C79.9487 8.57243 81.3548 7.18606 81.3548 5.49872C81.3548 3.81139 79.9487 2.48536 78.2374 2.48536ZM75.7924 41.3981H80.7428V11.2667H75.7924V41.3981ZM125.822 35.7334C124.111 35.7334 122.644 37.1794 122.644 38.8667C122.644 40.554 124.111 42 125.822 42C127.533 42 129 40.6136 129 38.8667C129 37.1198 127.533 35.7334 125.822 35.7334ZM51.409 15.4598C54.2037 18.2589 55.9372 22.0907 55.9372 26.332C55.9372 35.0101 48.7858 41.8793 40.1075 41.8793C35.8096 41.8793 31.9111 40.2176 29.0584 37.4969L24.7681 41.7269L24.2273 41.1937L28.5213 36.9599C25.8889 34.1932 24.277 30.4685 24.277 26.332C24.277 17.7143 31.3672 10.7847 40.1067 10.7847C44.2401 10.7847 48.0262 12.3574 50.859 14.9348L54.8432 11.0065L55.3841 11.5398L51.4083 15.4598H51.409ZM32.1077 33.4238L47.2925 18.452C45.3968 16.7541 42.8791 15.7261 40.1067 15.7261C34.1166 15.7261 29.411 20.4267 29.411 26.332C29.411 29.0716 30.4239 31.5517 32.1077 33.423V33.4238ZM47.8395 18.9793L32.6356 33.9699C34.5512 35.8126 37.1744 36.9388 40.1067 36.9388C46.0356 36.9388 50.8024 32.2381 50.8024 26.3328C50.8024 23.4635 49.6771 20.8786 47.8395 18.9793Z" fill="white"/>
<path d="M140.012 19V11.92H137.228V11.08H143.744V11.92H140.948V19H140.012ZM147.503 13.156V13.972H147.155C146.643 13.972 146.207 14.128 145.847 14.44C145.495 14.752 145.319 15.168 145.319 15.688V19H144.395V13.156H145.259V13.984C145.691 13.4 146.295 13.108 147.071 13.108C147.223 13.108 147.367 13.124 147.503 13.156ZM153.005 15.4V19H152.141V18.244C151.693 18.836 151.037 19.132 150.173 19.132C149.565 19.132 149.073 18.984 148.697 18.688C148.321 18.384 148.133 17.984 148.133 17.488C148.133 16.992 148.325 16.596 148.709 16.3C149.093 16.004 149.601 15.856 150.233 15.856H152.081V15.352C152.081 14.88 151.953 14.516 151.697 14.26C151.449 14.004 151.105 13.876 150.665 13.876C150.009 13.876 149.441 14.188 148.961 14.812L148.349 14.308C148.869 13.452 149.661 13.024 150.725 13.024C151.429 13.024 151.985 13.232 152.393 13.648C152.801 14.056 153.005 14.64 153.005 15.4ZM152.081 16.756V16.612H150.341C149.501 16.612 149.081 16.888 149.081 17.44C149.081 17.728 149.193 17.956 149.417 18.124C149.649 18.284 149.941 18.364 150.293 18.364C150.781 18.364 151.201 18.208 151.553 17.896C151.905 17.584 152.081 17.204 152.081 16.756ZM158.883 13.156H159.867L157.119 19.132H156.783L154.023 13.156H155.007L156.951 17.56L158.883 13.156ZM166.125 16.36H161.505C161.561 16.936 161.789 17.4 162.189 17.752C162.589 18.104 163.077 18.28 163.653 18.28C164.317 18.28 164.913 18.016 165.441 17.488L165.981 18.112C165.325 18.792 164.545 19.132 163.641 19.132C162.769 19.132 162.033 18.84 161.433 18.256C160.841 17.664 160.545 16.94 160.545 16.084C160.545 15.236 160.833 14.516 161.409 13.924C161.993 13.324 162.701 13.024 163.533 13.024C164.293 13.024 164.925 13.272 165.429 13.768C165.941 14.264 166.197 14.896 166.197 15.664C166.197 15.888 166.173 16.12 166.125 16.36ZM161.541 15.544H165.249C165.241 15.032 165.073 14.624 164.745 14.32C164.417 14.016 164.005 13.864 163.509 13.864C163.021 13.864 162.597 14.02 162.237 14.332C161.877 14.636 161.645 15.04 161.541 15.544ZM167.821 19V10H168.745V19H167.821ZM137.576 26.04C137.56 24.904 137.956 23.936 138.764 23.136C139.58 22.328 140.556 21.932 141.692 21.948C142.356 21.948 142.968 22.092 143.528 22.38C144.088 22.66 144.552 23.056 144.92 23.568L144.212 24.12C143.564 23.248 142.724 22.812 141.692 22.812C140.796 22.796 140.044 23.104 139.436 23.736C138.828 24.368 138.532 25.132 138.548 26.028C138.532 26.94 138.832 27.716 139.448 28.356C140.072 28.996 140.836 29.308 141.74 29.292C142.308 29.292 142.82 29.168 143.276 28.92C143.74 28.664 144.108 28.316 144.38 27.876V26.808H141.68V25.968H145.316V28.08C144.964 28.704 144.464 29.204 143.816 29.58C143.184 29.948 142.476 30.132 141.692 30.132C140.556 30.148 139.58 29.756 138.764 28.956C137.956 28.148 137.56 27.176 137.576 26.04ZM150.081 24.156V24.972H149.733C149.221 24.972 148.785 25.128 148.425 25.44C148.073 25.752 147.897 26.168 147.897 26.688V30H146.973V24.156H147.837V24.984C148.269 24.4 148.873 24.108 149.649 24.108C149.801 24.108 149.945 24.124 150.081 24.156ZM150.784 27.072C150.768 26.24 151.064 25.52 151.672 24.912C152.288 24.304 153.012 24.008 153.844 24.024C154.684 24.008 155.408 24.304 156.016 24.912C156.624 25.52 156.92 26.24 156.904 27.072C156.92 27.896 156.62 28.616 156.004 29.232C155.388 29.84 154.664 30.136 153.832 30.12C153 30.136 152.28 29.84 151.672 29.232C151.064 28.616 150.768 27.896 150.784 27.072ZM155.956 27.084C155.956 26.46 155.752 25.936 155.344 25.512C154.944 25.088 154.444 24.876 153.844 24.876C153.244 24.876 152.74 25.088 152.332 25.512C151.932 25.928 151.732 26.452 151.732 27.084C151.732 27.7 151.932 28.22 152.332 28.644C152.74 29.06 153.24 29.268 153.832 29.268C154.424 29.268 154.924 29.056 155.332 28.632C155.748 28.208 155.956 27.692 155.956 27.084ZM158.456 27.672V24.156H159.368V27.732C159.368 28.196 159.508 28.572 159.788 28.86C160.076 29.14 160.44 29.28 160.88 29.28C161.312 29.28 161.668 29.136 161.948 28.848C162.228 28.56 162.368 28.188 162.368 27.732V24.156H163.292V27.672C163.292 28.4 163.06 28.992 162.596 29.448C162.14 29.904 161.568 30.132 160.88 30.132C160.184 30.132 159.604 29.904 159.14 29.448C158.684 28.992 158.456 28.4 158.456 27.672ZM170.379 24.9C170.931 25.484 171.207 26.208 171.207 27.072C171.207 27.936 170.927 28.664 170.367 29.256C169.815 29.84 169.131 30.132 168.315 30.132C167.395 30.132 166.679 29.808 166.167 29.16V32.16H165.243V24.156H166.107V25.092C166.331 24.756 166.639 24.496 167.031 24.312C167.423 24.12 167.851 24.024 168.315 24.024C169.147 24.024 169.835 24.316 170.379 24.9ZM169.659 28.656C170.059 28.24 170.259 27.716 170.259 27.084C170.259 26.452 170.059 25.928 169.659 25.512C169.267 25.088 168.775 24.876 168.183 24.876C167.623 24.876 167.143 25.068 166.743 25.452C166.351 25.836 166.155 26.376 166.155 27.072C166.155 27.784 166.347 28.332 166.731 28.716C167.123 29.092 167.607 29.28 168.183 29.28C168.775 29.28 169.267 29.072 169.659 28.656Z" fill="white"/>
</svg>
