<svg width="53" height="53" viewBox="0 0 53 53" fill="none" xmlns="http://www.w3.org/2000/svg">
<circle cx="26.5" cy="26.5" r="26" stroke="white"/>
<path d="M34.7806 18.2043C32.5774 16.0088 29.6399 14.7891 26.5392 14.7891C20.0929 14.7891 14.8707 19.9932 14.8707 26.4171C14.8707 28.4499 15.4418 30.4828 16.421 32.1904L14.7891 38.2077L20.9905 36.5814C22.7041 37.4758 24.5808 37.9637 26.5392 37.9637C32.9854 37.9637 38.2077 32.7596 38.2077 26.3357C38.1261 23.3271 36.9837 20.3998 34.7806 18.2043ZM32.1694 30.5641C31.9246 31.2146 30.7823 31.8651 30.2111 31.9464C29.7215 32.0278 29.0687 32.0278 28.4159 31.8651C28.0079 31.7025 27.4367 31.5399 26.784 31.2146C23.8464 29.9949 21.9697 27.0676 21.8065 26.8236C21.6433 26.661 20.5825 25.2786 20.5825 23.815C20.5825 22.3513 21.3169 21.7008 21.5617 21.3755C21.8065 21.0503 22.1329 21.0503 22.3777 21.0503C22.5409 21.0503 22.7857 21.0503 22.9489 21.0503C23.112 21.0503 23.3568 20.969 23.6016 21.5382C23.8464 22.1074 24.4176 23.571 24.4992 23.6524C24.5808 23.815 24.5808 23.9776 24.4992 24.1402C24.4176 24.3029 24.336 24.4655 24.1728 24.6281C24.0096 24.7908 23.8464 25.0347 23.7648 25.116C23.6016 25.2786 23.4384 25.4413 23.6016 25.6852C23.7648 26.0105 24.336 26.9049 25.2336 27.7181C26.376 28.6939 27.2735 29.0191 27.5999 29.1817C27.9263 29.3444 28.0895 29.2631 28.2527 29.1004C28.4159 28.9378 28.9871 28.2873 29.1503 27.962C29.3135 27.6368 29.5583 27.7181 29.8031 27.7994C30.0479 27.8807 31.5166 28.6125 31.7614 28.7752C32.0878 28.9378 32.251 29.0191 32.3326 29.1004C32.4142 29.3444 32.4142 29.9136 32.1694 30.5641Z" fill="white"/>
</svg>
